# Blender v2.82 (sub 7) OBJ File: 'road1a.blend'
# www.blender.org
mtllib road1a.mtl
o Cube_Cube.001
v -7.500000 -0.500000 -149.000000
v -7.500000 0.500000 -149.000000
v -7.500000 -0.500000 149.000000
v -7.500000 0.500000 149.000000
v 7.500000 -0.500000 -149.000000
v 7.500000 0.500000 -149.000000
v 7.500000 -0.500000 149.000000
v 7.500000 0.500000 149.000000
vt 0.375000 0.000000
vt 0.375000 0.250000
vt 0.625000 0.250000
vt 0.625000 0.000000
vt 0.375000 0.500000
vt 0.625000 0.500000
vt 0.375000 0.750000
vt 0.625000 0.750000
vt 0.375000 1.000000
vt 0.625000 1.000000
vt 0.125000 0.500000
vt 0.125000 0.750000
vt 27.260727 2.087149
vt -26.260727 2.087160
vt -26.260727 -1.298497
vt 27.260727 -1.298500
vn -1.0000 0.0000 0.0000
vn 0.0000 0.0000 1.0000
vn 1.0000 0.0000 0.0000
vn 0.0000 0.0000 -1.0000
vn 0.0000 -1.0000 0.0000
vn 0.0000 1.0000 0.0000
g Cube_Cube.001_Material.001
usemtl Material.001
s off
f 1/1/1 3/2/1 4/3/1 2/4/1
f 3/2/2 7/5/2 8/6/2 4/3/2
f 7/5/3 5/7/3 6/8/3 8/6/3
f 5/7/4 1/9/4 2/10/4 6/8/4
f 3/11/5 1/12/5 5/7/5 7/5/5
f 8/13/6 6/14/6 2/15/6 4/16/6
